<svg width="26" height="10" viewBox="0 0 26 10" fill="none" xmlns="http://www.w3.org/2000/svg">
<g clip-path="url(#clip0)">
<path d="M25.006 6.23952L23.027 4.26052C17.343 -1.42048 8.09801 -1.42248 2.41901 4.26052L0.439012 6.23952C-0.146988 6.82452 -0.146988 7.77452 0.439012 8.36052C0.732012 8.65352 1.11601 8.79952 1.50001 8.79952C1.88401 8.79952 2.26801 8.65352 2.56101 8.36052L4.54001 6.38152C6.07901 4.84352 7.94901 3.84252 9.92001 3.35352C9.45401 3.95552 9.16501 4.70152 9.16501 5.52252C9.16501 7.48752 10.758 9.08052 12.723 9.08052C14.688 9.08052 16.281 7.48752 16.281 5.52252C16.281 4.70152 15.992 3.95552 15.525 3.35352C17.497 3.84252 19.368 4.84352 20.906 6.38152L22.885 8.36052C23.471 8.94652 24.42 8.94652 25.006 8.36052C25.592 7.77452 25.592 6.82552 25.006 6.23952Z" fill="#BBAD9C"/>
</g>
<defs>
<clipPath id="clip0">
<rect width="25.445" height="9.081" fill="white"/>
</clipPath>
</defs>
</svg>
