<svg width="127" height="314" viewBox="0 0 127 314" fill="none" xmlns="http://www.w3.org/2000/svg">
<path opacity="0.2" d="M52.1871 314C70.8367 314 85.9553 311.644 85.9553 308.737C85.9553 305.831 70.8367 303.475 52.1871 303.475C33.5375 303.475 18.4189 305.831 18.4189 308.737C18.4189 311.644 33.5375 314 52.1871 314Z" fill="#CFBFA6"/>
<path d="M69.8089 169.939C72.4145 159.843 78.0238 150.832 83.7778 142.146C88.8805 134.438 94.2364 126.766 101.004 120.397C107.771 114.064 116.058 109.033 125.214 107.622C122.97 114.824 120.727 122.025 118.519 129.227C116.275 136.428 113.959 143.775 109.544 149.927C104.948 156.332 98.2534 161.001 91.1242 164.33C83.995 167.659 76.3229 169.795 68.7233 171.894" fill="#006837"/>
<path d="M71.1116 170.302C75.02 157.455 82.3301 145.983 90.1831 135.162C95.1772 128.25 100.823 121.447 107.807 116.525C109.942 115.005 112.258 113.594 114.611 112.436C119.93 109.866 121.523 108.383 121.848 113.775C122.138 118.479 118.049 126.151 116.601 130.711C114.502 137.225 112.295 143.522 108.241 149.095C98.8323 162.015 83.0539 166.538 68.3612 170.627C66.6965 171.098 67.3841 173.704 69.085 173.233C84.2119 169.035 100.75 164.222 110.485 150.905C119.279 138.926 122.21 121.881 126.517 107.985C126.842 106.935 125.829 106.103 124.852 106.32C97.1314 112.182 76.2142 144.065 68.506 169.578C67.9993 171.243 70.6049 171.966 71.1116 170.302Z" fill="#006837"/>
<path d="M55.9851 204.752C66.0818 183.183 76.1785 161.615 86.2752 140.01C87.7589 136.861 83.0544 134.111 81.5706 137.26C71.4739 158.828 61.3772 180.397 51.2806 202.001C49.833 205.15 54.5014 207.936 55.9851 204.752Z" fill="#39B54A"/>
<path d="M56.8167 157.454C57.7576 134.836 65.9001 112.29 71.5817 90.5042C72.016 88.8033 69.4104 88.0796 68.9761 89.7804C63.2221 111.819 55.0796 134.546 54.1025 157.454C54.0301 159.191 56.7443 159.191 56.8167 157.454Z" fill="#39B54A"/>
<path d="M40.6771 162.192C31.0508 153.615 21.316 144.966 13.7888 134.544C6.26147 124.085 0.941705 111.564 1.37597 98.6807C7.52808 108.415 20.5199 112.071 26.9253 121.661C29.0243 124.809 30.2909 128.464 31.5575 132.047C35.0316 142.107 38.5058 152.168 42.0161 162.228" fill="#006837"/>
<path d="M41.6539 161.216C32.1724 152.748 22.4015 144.207 14.9827 133.821C10.9296 128.139 7.31069 121.77 5.21174 115.075C4.63271 113.193 1.66522 103.784 2.78708 102.879C3.58324 102.264 -0.397543 101.504 3.61942 103.531C10.8572 107.222 21.4605 116.197 25.6946 122.675C33.0772 133.929 36.2256 149.744 40.6406 162.482C41.2197 164.111 43.8253 163.423 43.2462 161.759C38.8674 149.056 35.719 134.146 28.9878 122.494C22.7271 111.709 9.84391 107.765 2.53376 97.849C1.77379 96.8357 -0.0356539 97.0891 0.000534949 98.5366C0.434801 126.438 20.1577 145.618 39.7359 163.025C41.0387 164.292 42.9567 162.374 41.6539 161.216Z" fill="#006837"/>
<path d="M20.4473 116.053C36.0809 148.37 46.1776 182.279 50.9907 217.816C51.4611 221.254 56.6723 219.807 56.2381 216.369C51.3887 180.361 40.9663 146.017 25.1518 113.303C23.5957 110.19 18.9273 112.941 20.4473 116.053Z" fill="#39B54A"/>
<path d="M50.3761 86.415C42.4869 58.7667 42.7402 28.8747 51.0275 1.33496C56.8177 9.6584 61.2327 18.9228 64.1278 28.6214C67.3125 39.4419 68.5791 50.9499 66.6973 62.0961C64.8154 73.2423 59.6766 83.9542 51.4255 91.6624" fill="#006837"/>
<path d="M51.7145 86.0533C48.3852 73.3148 46.2138 60.3592 46.0329 47.1503C45.9605 40.7086 45.5263 8.75384 51.8955 7.63198C58.8438 6.36537 64.5978 36.0402 65.3577 42.12C67.6376 60.4315 63.295 77.1508 50.4841 90.7216C49.2899 91.9883 51.2079 93.9063 52.4021 92.6397C77.2639 66.2942 70.4966 28.8387 52.2212 0.647529C51.606 -0.329571 50.0499 -0.184815 49.7242 0.973229C41.7626 29.5986 41.5455 58.0431 49.0728 86.7771C49.5432 88.4779 52.1488 87.7542 51.7145 86.0533Z" fill="#006837"/>
<path d="M72.7048 162.195C70.6058 148.299 75.0933 134.04 82.331 121.989C89.5688 109.939 99.4846 99.7334 109.292 89.6729C111.68 108.853 107.627 128.829 97.8922 145.548C95.2143 150.144 92.0658 154.596 87.8317 157.78C83.5976 161.001 78.1331 162.883 72.8857 161.942" fill="#39B54A"/>
<path d="M74.0432 162.196C72.6319 147.937 76.3231 134.946 83.4885 122.678C84.6104 120.76 103.718 92.677 106.975 93.9798C113.091 96.4407 105.781 123.112 104.37 127.491C99.7735 141.894 90.7263 161.472 72.849 160.531C71.1119 160.459 71.1119 163.173 72.849 163.245C105.564 164.946 112.874 112.979 110.63 89.6372C110.522 88.5153 109.183 87.7553 108.314 88.66C88.5188 109.034 68.3254 131.761 71.3291 162.16C71.51 163.897 74.2242 163.933 74.0432 162.196Z" fill="#39B54A"/>
<path d="M57.7947 137.331C56.6005 120.323 60.0384 103.242 65.6477 87.1737C71.257 71.0696 79.0014 55.8341 86.7096 40.6348C91.8485 58.0416 93.4769 76.7151 89.1343 94.3391C84.8278 111.927 74.1521 128.32 58.5547 137.549" fill="#39B54A"/>
<path d="M59.1692 137.333C58.5178 120.18 61.3405 103.678 66.9498 87.5376C69.9896 78.816 77.7702 50.6973 85.9851 46.9336C91.5944 44.3642 88.6631 90.7222 87.8308 93.9792C83.3795 111.748 73.1743 126.332 57.8664 136.393C56.4188 137.333 57.7578 139.686 59.2415 138.745C92.7886 116.706 97.8189 76.6447 88.0117 40.2749C87.7222 39.1892 86.0575 38.8997 85.5147 39.9492C69.8811 70.7821 55.116 101.977 56.455 137.37C56.4912 139.071 59.2053 139.071 59.1692 137.333Z" fill="#39B54A"/>
<path d="M45.7428 76.5729C53.1977 121.158 54.4643 166.032 49.7236 210.978C49.3617 214.453 54.79 214.416 55.1519 210.978C59.9289 165.561 58.4813 120.181 50.954 75.1253C50.4112 71.6874 45.2 73.1712 45.7428 76.5729Z" fill="#39B54A"/>
<path d="M50.6651 90.6495C43.3188 84.4974 36.9133 74.1112 35.1763 64.702C33.4392 55.2929 33.9458 45.6305 34.5611 36.0766C35.1401 26.5228 35.8277 16.8965 34.4525 7.41504C41.6179 17.0775 47.6614 27.5723 52.4022 38.6099C55.9849 46.9695 58.88 55.7996 59.2057 64.9192C59.5314 74.0388 57.0705 83.4841 51.0632 90.3238" fill="#39B54A"/>
<path d="M51.6064 89.709C39.0127 77.7304 35.3576 64.5939 35.3576 47.5851C35.3576 44.2557 35.7557 13.3866 36.5518 13.0971C39.7726 11.9029 53.8501 46.1737 53.9949 46.6804C59.0975 61.6988 59.7489 76.4277 49.8331 89.6728C48.7837 91.0842 51.1359 92.4231 52.1854 91.048C71.9445 64.6663 51.8597 29.5992 35.6109 6.80024C34.9233 5.82314 32.9329 6.00409 33.0777 7.48784C36.2261 37.6694 24.9714 68.1766 49.6884 91.6632C50.955 92.8212 52.873 90.9032 51.6064 89.709Z" fill="#39B54A"/>
<path d="M39.8445 156.261C43.5358 143.233 41.3644 125.5 35.1761 113.449C28.9879 101.435 19.2892 91.4826 8.54114 83.1953C9.12016 97.0918 10.2058 111.133 14.838 124.233C19.4702 137.37 27.4317 150.036 39.8445 156.261Z" fill="#39B54A"/>
<path d="M41.1476 156.622C48.2406 126.115 32.7518 100.783 9.48234 82.2539C8.65 81.5663 7.09388 81.9282 7.16626 83.231C8.46906 110.771 12.9565 142.4 39.1572 157.454C40.6772 158.323 42.0523 155.971 40.5324 155.102C28.3729 148.118 20.7371 136.899 16.1411 123.907C14.4402 119.13 5.86346 90.0345 11.1108 86.9946C14.9469 84.7871 33.1861 112.508 33.9822 114.136C40.3876 126.983 41.7628 142.002 38.542 155.898C38.1439 157.599 40.7495 158.323 41.1476 156.622Z" fill="#39B54A"/>
<path d="M94.0191 258.061C94.0191 279.702 85.6233 298.52 73.2105 308.327H34.0541C21.6413 298.52 13.2455 279.702 13.2455 258.061C13.2455 237.868 20.5918 220.099 31.6656 209.821H75.5627C86.6727 220.063 94.0191 237.868 94.0191 258.061Z" fill="#E0D6C7"/>
<path opacity="0.2" d="M35.4292 230.702L24.9344 248.905H45.9602L35.4292 230.702Z" stroke="#CD9E64" stroke-miterlimit="10"/>
<path opacity="0.2" d="M35.4295 235.152L28.7708 246.697H42.1245L35.4295 235.152Z" stroke="#CD9E64" stroke-width="0.5" stroke-miterlimit="10"/>
<path opacity="0.2" d="M50.6289 290.486L37.9266 297.832V283.176L50.6289 290.486Z" stroke="#CD9E64" stroke-width="0.75" stroke-miterlimit="10"/>
<path opacity="0.2" d="M46.3942 290.486L40.0249 294.177V286.831L46.3942 290.486Z" stroke="#CD9E64" stroke-width="0.5" stroke-miterlimit="10"/>
<path opacity="0.2" d="M68.4335 215.176L58.2644 232.8H78.6026L68.4335 215.176Z" stroke="#CD9E64" stroke-miterlimit="10"/>
<path opacity="0.2" d="M68.434 221.871L64.0552 229.471H72.8129L68.434 221.871Z" stroke="#CD9E64" stroke-width="0.5" stroke-miterlimit="10"/>
<path opacity="0.2" d="M68.4334 292.585L56.7444 265.732H80.1224L68.4334 292.585Z" stroke="#CD9E64" stroke-miterlimit="10"/>
<path opacity="0.2" d="M68.4335 286.035L61.0148 268.99H75.8522L68.4335 286.035Z" stroke="#CD9E64" stroke-width="0.5" stroke-miterlimit="10"/>
<path opacity="0.2" d="M29.7118 269.894C29.7118 268.084 31.1594 266.637 32.9688 266.637C34.7782 266.637 36.2258 268.084 36.2258 269.894C36.2258 271.703 34.7782 273.151 32.9688 273.151C31.1594 273.151 29.7118 271.667 29.7118 269.894Z" stroke="#CD9E64" stroke-miterlimit="10"/>
<path opacity="0.2" d="M68.4339 253.537C71.3119 253.537 73.6451 251.204 73.6451 248.325C73.6451 245.447 71.3119 243.114 68.4339 243.114C65.5558 243.114 63.2227 245.447 63.2227 248.325C63.2227 251.204 65.5558 253.537 68.4339 253.537Z" stroke="#CD9E64" stroke-miterlimit="10"/>
<path opacity="0.2" d="M47.4438 222.993C48.5631 222.993 49.4704 222.085 49.4704 220.966C49.4704 219.847 48.5631 218.939 47.4438 218.939C46.3246 218.939 45.4172 219.847 45.4172 220.966C45.4172 222.085 46.3246 222.993 47.4438 222.993Z" stroke="#CD9E64" stroke-miterlimit="10"/>
<path d="M75.2728 209.821H31.9909C30.5434 209.821 29.3491 208.626 29.3491 207.179C29.3491 205.731 30.5434 204.537 31.9909 204.537H75.2728C76.7204 204.537 77.9146 205.731 77.9146 207.179C77.9146 208.626 76.7204 209.821 75.2728 209.821Z" fill="#E0D6C7"/>
<path d="M78.2767 152.641C79.9052 143.992 83.307 135.777 87.5411 128.141C91.8838 120.542 97.095 113.34 103.681 107.478C99.3749 115.15 94.8874 122.387 90.7257 129.915C86.4554 137.333 82.5832 144.969 78.2767 152.641Z" fill="#006837"/>
<path d="M47.589 79.6486C45.2729 71.9042 44.0786 64.0512 43.1377 56.162C42.3054 48.2728 41.7626 40.3475 42.3054 32.2773C44.6215 39.9856 45.8157 47.8748 46.7566 55.7639C47.589 63.6893 48.1318 71.6147 47.589 79.6486Z" fill="#006837"/>
<path d="M17.624 101.976C22.7628 108.309 26.5265 115.583 29.5663 123.074C32.4976 130.601 34.7414 138.454 35.3566 146.596C31.9548 139.214 29.1683 131.759 26.2008 124.413C23.3057 116.958 20.2296 109.684 17.624 101.976Z" fill="#006837"/>
<path d="M63.5476 121.048C66.7322 110.952 70.3511 101.144 73.7167 91.2648C77.1908 81.3853 80.3392 71.4695 84.1029 61.5176C83.162 72.0847 80.5564 82.3986 77.1546 92.4229C73.6443 102.375 69.3378 112.11 63.5476 121.048Z" fill="#006837"/>
</svg>
